<svg width="10" height="10" viewBox="0 0 10 10" fill="none" xmlns="http://www.w3.org/2000/svg">
<path d="M5.51428 0C6.07678 0.0015 6.36228 0.0045 6.60878 0.0115L6.70578 0.015C6.81778 0.019 6.92828 0.024 7.06178 0.03C7.59378 0.055 7.95678 0.139 8.27528 0.2625C8.60528 0.3895 8.88328 0.5615 9.16128 0.839C9.41563 1.08887 9.61238 1.39124 9.73778 1.725C9.86128 2.0435 9.94528 2.4065 9.97028 2.939C9.97628 3.072 9.98128 3.1825 9.98528 3.295L9.98828 3.392C9.99578 3.638 9.99878 3.9235 9.99978 4.486L10.0003 4.859V5.514C10.0015 5.8787 9.99767 6.2434 9.98878 6.608L9.98578 6.705C9.98178 6.8175 9.97678 6.928 9.97078 7.061C9.94578 7.5935 9.86078 7.956 9.73778 8.275C9.61238 8.60876 9.41563 8.91113 9.16128 9.161C8.91142 9.41535 8.60905 9.61209 8.27528 9.7375C7.95678 9.861 7.59378 9.945 7.06178 9.97L6.70578 9.985L6.60878 9.988C6.36228 9.995 6.07678 9.9985 5.51428 9.9995L5.14128 10H4.48678C4.12191 10.0013 3.75705 9.99745 3.39228 9.9885L3.29528 9.9855C3.17659 9.981 3.05792 9.97584 2.93928 9.97C2.40728 9.945 2.04428 9.861 1.72528 9.7375C1.3917 9.61203 1.08951 9.41529 0.839784 9.161C0.585257 8.91118 0.388339 8.60881 0.262784 8.275C0.139284 7.9565 0.0552844 7.5935 0.0302844 7.061L0.0152844 6.705L0.0127844 6.608C0.00356747 6.24341 -0.000599647 5.87871 0.000284398 5.514V4.486C-0.00109955 4.1213 0.00256751 3.7566 0.0112844 3.392L0.0147844 3.295C0.0187844 3.1825 0.0237844 3.072 0.0297844 2.939C0.0547844 2.4065 0.138784 2.044 0.262284 1.725C0.388132 1.3911 0.585396 1.08872 0.840284 0.839C1.08986 0.584774 1.39188 0.388037 1.72528 0.2625C2.04428 0.139 2.40678 0.055 2.93928 0.03C3.07228 0.024 3.18328 0.019 3.29528 0.015L3.39228 0.012C3.75688 0.00311635 4.12158 -0.000717349 4.48628 0.000499964L5.51428 0ZM5.00028 2.5C4.33724 2.5 3.70136 2.76339 3.23252 3.23223C2.76368 3.70107 2.50028 4.33696 2.50028 5C2.50028 5.66304 2.76368 6.29893 3.23252 6.76777C3.70136 7.23661 4.33724 7.5 5.00028 7.5C5.66333 7.5 6.29921 7.23661 6.76805 6.76777C7.23689 6.29893 7.50028 5.66304 7.50028 5C7.50028 4.33696 7.23689 3.70107 6.76805 3.23223C6.29921 2.76339 5.66333 2.5 5.00028 2.5ZM5.00028 3.5C5.19727 3.49997 5.39233 3.53873 5.57433 3.61409C5.75633 3.68944 5.92171 3.7999 6.06102 3.93916C6.20033 4.07843 6.31085 4.24377 6.38626 4.42574C6.46167 4.60772 6.5005 4.80277 6.50053 4.99975C6.50057 5.19673 6.4618 5.39179 6.38645 5.57379C6.3111 5.7558 6.20064 5.92117 6.06137 6.06048C5.92211 6.19979 5.75677 6.31031 5.57479 6.38572C5.39281 6.46114 5.19777 6.49997 5.00078 6.5C4.60296 6.5 4.22143 6.34196 3.94012 6.06066C3.65882 5.77936 3.50078 5.39782 3.50078 5C3.50078 4.60218 3.65882 4.22064 3.94012 3.93934C4.22143 3.65804 4.60296 3.5 5.00078 3.5M7.62578 1.75C7.46002 1.75 7.30105 1.81585 7.18384 1.93306C7.06663 2.05027 7.00078 2.20924 7.00078 2.375C7.00078 2.54076 7.06663 2.69973 7.18384 2.81694C7.30105 2.93415 7.46002 3 7.62578 3C7.79154 3 7.95052 2.93415 8.06773 2.81694C8.18494 2.69973 8.25078 2.54076 8.25078 2.375C8.25078 2.20924 8.18494 2.05027 8.06773 1.93306C7.95052 1.81585 7.79154 1.75 7.62578 1.75Z" fill="white"/>
</svg>
