<svg width="10" height="8" viewBox="0 0 10 8" fill="none" xmlns="http://www.w3.org/2000/svg">
<path fill-rule="evenodd" clip-rule="evenodd" d="M5 0C5.4275 0 5.866 0.011 6.291 0.029L6.793 0.053L7.2735 0.0815001L7.7235 0.112L8.1345 0.144C8.58059 0.177946 9.0004 0.368217 9.31998 0.681301C9.63956 0.994385 9.8384 1.4102 9.8815 1.8555L9.9015 2.068L9.939 2.523C9.974 2.9945 10 3.5085 10 4C10 4.4915 9.974 5.0055 9.939 5.477L9.9015 5.932L9.8815 6.1445C9.83839 6.58988 9.63947 7.00576 9.31979 7.31885C9.00011 7.63194 8.58018 7.82217 8.134 7.856L7.724 7.8875L7.274 7.9185L6.793 7.947L6.291 7.971C5.86091 7.98963 5.43049 7.9993 5 8C4.56951 7.9993 4.13909 7.98963 3.709 7.971L3.207 7.947L2.7265 7.9185L2.2765 7.8875L1.8655 7.856C1.41941 7.82205 0.9996 7.63178 0.680022 7.3187C0.360444 7.00562 0.161595 6.5898 0.1185 6.1445L0.0985 5.932L0.061 5.477C0.0229164 4.98556 0.00256982 4.49291 0 4C0 3.5085 0.026 2.9945 0.061 2.523L0.0985 2.068L0.1185 1.8555C0.161579 1.41028 0.360356 0.994526 0.679832 0.681453C0.999307 0.368379 1.419 0.178058 1.865 0.144L2.2755 0.112L2.7255 0.0815001L3.2065 0.053L3.7085 0.029C4.13875 0.0103636 4.56935 0.00069479 5 0ZM4 2.7875V5.2125C4 5.4435 4.25 5.5875 4.45 5.4725L6.55 4.26C6.5957 4.2337 6.63365 4.19581 6.66005 4.15017C6.68644 4.10452 6.70033 4.05273 6.70033 4C6.70033 3.94727 6.68644 3.89548 6.66005 3.84983C6.63365 3.80419 6.5957 3.7663 6.55 3.74L4.45 2.528C4.40438 2.50166 4.35263 2.4878 4.29995 2.48781C4.24727 2.48782 4.19553 2.50169 4.14992 2.52805C4.10431 2.5544 4.06644 2.5923 4.04012 2.63793C4.0138 2.68357 3.99997 2.73532 4 2.788V2.7875Z" fill="white"/>
</svg>
